<?xml version="1.0" encoding="UTF-8"?>
<svg version="1.1" xmlns="http://www.w3.org/2000/svg" width="148" height="148">
<path d="M0 0 C48.84 0 97.68 0 148 0 C148 48.84 148 97.68 148 148 C99.16 148 50.32 148 0 148 C0 99.16 0 50.32 0 0 Z " fill="#242425" transform="translate(0,0)"/>
<path d="M0 0 C0.495 0.99 0.495 0.99 1 2 C2.65 1.34 4.3 0.68 6 0 C6.99 1.485 6.99 1.485 8 3 C8.66 2.67 9.32 2.34 10 2 C10 2.66 10 3.32 10 4 C11.32 4 12.64 4 14 4 C14 6.31 14 8.62 14 11 C14.66 11 15.32 11 16 11 C16.495 13.475 16.495 13.475 17 16 C17.66 15.67 18.32 15.34 19 15 C19 19.62 19 24.24 19 29 C19.99 28.67 20.98 28.34 22 28 C22.185625 26.9171875 22.185625 26.9171875 22.375 25.8125 C22.9904931 23.04278106 23.88444374 20.6029646 25 18 C25.33 18 25.66 18 26 18 C26.42536767 29.15408559 24.88449845 40.02838616 23 51 C22.855625 51.86625 22.71125 52.7325 22.5625 53.625 C22.00064977 55.99725652 21.18012509 57.87577484 20 60 C23.5342546 60.17240266 26.14489611 59.95678537 29.5625 58.9375 C32.98265898 58.00472937 34.69375875 57.83309133 38 59 C38.33 59.66 38.66 60.32 39 61 C31.575 61.99 31.575 61.99 24 63 C24.495 64.485 24.495 64.485 25 66 C25.12781786 68.67394964 25.04391871 71.32095857 25 74 C25.66 74 26.32 74 27 74 C27 72.68 27 71.36 27 70 C28.32 70 29.64 70 31 70 C31 70.99 31 71.98 31 73 C32.98 73.99 32.98 73.99 35 75 C35 76.32 35 77.64 35 79 C36.98 79.33 38.96 79.66 41 80 C41 80.66 41 81.32 41 82 C41.66 82 42.32 82 43 82 C43 80.68 43 79.36 43 78 C45.31 78.33 47.62 78.66 50 79 C50 79.66 50 80.32 50 81 C50.99 81 51.98 81 53 81 C53.66 82.65 54.32 84.3 55 86 C11.44 86 -32.12 86 -77 86 C-77 77.42 -77 68.84 -77 60 C-76.01 60.66 -75.02 61.32 -74 62 C-73.34 61.34 -72.68 60.68 -72 60 C-71.34 60 -70.68 60 -70 60 C-69.67 57.69 -69.34 55.38 -69 53 C-68.34 53.99 -67.68 54.98 -67 56 C-67 55.34 -67 54.68 -67 54 C-67 52 -67 50 -67 48 C-66.34 48.33 -65.68 48.66 -65 49 C-64.67 49.99 -64.34 50.98 -64 52 C-64.33 50.02 -64.66 48.04 -65 46 C-63.515 45.505 -63.515 45.505 -62 45 C-62 46.32 -62 47.64 -62 49 C-61.34 49.33 -60.68 49.66 -60 50 C-60.33 50.99 -60.66 51.98 -61 53 C-60.34 53 -59.68 53 -59 53 C-59 52.01 -59 51.02 -59 50 C-57.68 50.33 -56.36 50.66 -55 51 C-55.66 55.95 -56.32 60.9 -57 66 C-54.525 65.505 -54.525 65.505 -52 65 C-52.9590625 65.2784375 -52.9590625 65.2784375 -53.9375 65.5625 C-56.42126213 66.94246056 -56.42126213 66.94246056 -56.75 70.625 C-56.87375 72.295625 -56.87375 72.295625 -57 74 C-56.34 74 -55.68 74 -55 74 C-54.731875 73.195625 -54.46375 72.39125 -54.1875 71.5625 C-53.795625 70.716875 -53.40375 69.87125 -53 69 C-51.515 68.505 -51.515 68.505 -50 68 C-49.67 66.02 -49.34 64.04 -49 62 C-49.99 62 -50.98 62 -52 62 C-52 61.34 -52 60.68 -52 60 C-51.01 60 -50.02 60 -49 60 C-48.67 59.01 -48.34 58.02 -48 57 C-45.525 56.505 -45.525 56.505 -43 56 C-43 55.34 -43 54.68 -43 54 C-45.97 54.495 -45.97 54.495 -49 55 C-49 54.34 -49 53.68 -49 53 C-46.525 52.505 -46.525 52.505 -44 52 C-43.67 50.35 -43.34 48.7 -43 47 C-42.01 47 -41.02 47 -40 47 C-39.34 46.01 -38.68 45.02 -38 44 C-37.67 44.66 -37.34 45.32 -37 46 C-36.10822859 41.87610155 -36.10822859 41.87610155 -36.5625 37.75 C-36.706875 37.1725 -36.85125 36.595 -37 36 C-36.34 35.34 -35.68 34.68 -35 34 C-34.63239269 31.67182036 -34.29758419 29.3381615 -34 27 C-33.505 26.505 -33.505 26.505 -33 26 C-32.76924918 24.65252916 -32.58846937 23.29622435 -32.4375 21.9375 C-32.293125 20.638125 -32.14875 19.33875 -32 18 C-31.34 18 -30.68 18 -30 18 C-29.7525 17.38125 -29.505 16.7625 -29.25 16.125 C-27.79371361 13.64931313 -26.62187494 13.04874998 -24 12 C-23.375 13.875 -23.375 13.875 -23 16 C-23.66 16.66 -24.32 17.32 -25 18 C-25.99 18 -26.98 18 -28 18 C-26.63016497 21.16115776 -26.0109362 21.9927092 -23 24 C-23 24.66 -23 25.32 -23 26 C-22.01 26 -21.02 26 -20 26 C-20 25.34 -20 24.68 -20 24 C-19.34 24 -18.68 24 -18 24 C-18 19.38 -18 14.76 -18 10 C-17.01 10 -16.02 10 -15 10 C-14.67 9.01 -14.34 8.02 -14 7 C-13.01 7.495 -13.01 7.495 -12 8 C-11.01 7.01 -10.02 6.02 -9 5 C-8.505 5.99 -8.505 5.99 -8 7 C-8.66 7 -9.32 7 -10 7 C-9.01 8.485 -9.01 8.485 -8 10 C-7.01 10 -6.02 10 -5 10 C-5 10.66 -5 11.32 -5 12 C-1.83051301 10.34412478 -1.83051301 10.34412478 -1.26953125 7.6171875 C-1.04330078 6.25980469 -1.04330078 6.25980469 -0.8125 4.875 C-0.65394531 3.96492188 -0.49539062 3.05484375 -0.33203125 2.1171875 C-0.22246094 1.41851562 -0.11289063 0.71984375 0 0 Z " fill="#252527" transform="translate(89,62)"/>
<path d="M0 0 C30.36 0 60.72 0 92 0 C92 44.88 92 89.76 92 136 C89.86302301 132.79453452 89.02107981 130.01366537 87.9765625 126.3515625 C85.54423149 120.49450943 81.65203528 117.91944599 76.0625 115.375 C64.35765112 109.86391527 64.35765112 109.86391527 63.14453125 106.93359375 C63.03496094 106.10988281 62.92539063 105.28617187 62.8125 104.4375 C62.67328125 103.46554688 62.5340625 102.49359375 62.390625 101.4921875 C62.01461384 98.13064776 61.65835932 94.76766373 61.30859375 91.40332031 C59.68512056 75.96099796 57.05714238 61.00453471 45 50 C44.01 49.34 43.02 48.68 42 48 C42 47.34 42 46.68 42 46 C41.40316406 45.75765625 40.80632812 45.5153125 40.19140625 45.265625 C37.56303092 43.74763283 36.58239627 42.29096508 34.9375 39.75 C20.28210092 17.17465445 20.28210092 17.17465445 0 1 C0 0.67 0 0.34 0 0 Z " fill="#FDFDFD" transform="translate(56,0)"/>
<path d="M0 0 C15.51 0 31.02 0 47 0 C45.02 0.99 45.02 0.99 43 2 C34.29742214 7.07650375 32.51411147 12.81668739 29.9296875 22.171875 C29 25 29 25 27 27 C26.66559953 29.09500463 26.4049877 31.20215236 26.1875 33.3125 C25.40731854 38.95333578 24.46211239 41.29971168 20 45 C15.11457822 52.91775253 16.59557601 62.591407 17.5625 71.5 C18.10768757 77.43292359 18.0043474 83.3032212 17.8125 89.25 C17.79453369 90.18521484 17.77656738 91.12042969 17.75805664 92.08398438 C17.49734653 98.38588044 16.1915027 102.55078096 13 108 C12.34 108 11.68 108 11 108 C11.33 121.2 11.66 134.4 12 148 C8.04 148 4.08 148 0 148 C0 99.16 0 50.32 0 0 Z " fill="#FCFCFC" transform="translate(0,0)"/>
<path d="M0 0 C3.1356679 1.34523249 4.77842457 2.65221066 6.7265625 5.44140625 C7.2009375 6.10720703 7.6753125 6.77300781 8.1640625 7.45898438 C8.64617187 8.15314453 9.12828125 8.84730469 9.625 9.5625 C10.59265361 10.94140639 11.56384369 12.31783987 12.5390625 13.69140625 C12.96396973 14.30185791 13.38887695 14.91230957 13.82666016 15.54125977 C14.95450794 17.15085926 14.95450794 17.15085926 17 18 C17 18.66 17 19.32 17 20 C17.70125 20.165 18.4025 20.33 19.125 20.5 C26.70556181 24.45507573 31.0360651 34.35339873 34 42 C36.04179706 49.27459936 36.97750005 56.79525066 37.5625 64.3125 C37.645 65.26253906 37.7275 66.21257812 37.8125 67.19140625 C38 70 38 70 37.9375 72.90234375 C38.08279862 76.21242796 38.34586125 78.10525718 40 81 C43.66869599 83.7605917 47.86955363 85.4864697 52.08203125 87.24609375 C57.57710732 89.55649363 61.40365831 92.57128556 64 98 C66.94764485 105.37590393 67.36593603 112.11204555 67 120 C65.68 120 64.36 120 63 120 C62.34 118.35 61.68 116.7 61 115 C60.01 115 59.02 115 58 115 C58 114.34 58 113.68 58 113 C55.69 112.67 53.38 112.34 51 112 C51 113.32 51 114.64 51 116 C50.34 116 49.68 116 49 116 C49 115.34 49 114.68 49 114 C47.515 114.495 47.515 114.495 46 115 C44.515 114.01 44.515 114.01 43 113 C43 111.68 43 110.36 43 109 C40.03 108.505 40.03 108.505 37 108 C37.66 107.67 38.32 107.34 39 107 C39 106.01 39 105.02 39 104 C37.68 104 36.36 104 35 104 C35 105.32 35 106.64 35 108 C34.34 108 33.68 108 33 108 C32.67 104.37 32.34 100.74 32 97 C36.62 96.01 41.24 95.02 46 94 C41.50452823 93.10090565 40.03229003 92.98292599 35.875 94 C31.32161687 95.10720562 31.32161687 95.10720562 28 94 C28.33 93.34 28.66 92.68 29 92 C30.04700836 88.85897492 30.03310006 86.30998208 29.94140625 83.02734375 C30.03237923 79.87967847 31.13069791 77.01698962 32 74 C32.92282113 67.33743422 33.11010656 60.71650043 33 54 C32.82984375 54.54269531 32.6596875 55.08539063 32.484375 55.64453125 C32.24203125 56.35996094 31.9996875 57.07539062 31.75 57.8125 C31.51796875 58.52019531 31.2859375 59.22789063 31.046875 59.95703125 C30 62 30 62 26 65 C26 60.05 26 55.1 26 50 C25.01 50.495 25.01 50.495 24 51 C24 49.02 24 47.04 24 45 C22.68 44.67 21.36 44.34 20 44 C20 42.02 20 40.04 20 38 C19.34 38 18.68 38 18 38 C17.67 39.98 17.34 41.96 17 44 C16.67 44 16.34 44 16 44 C15.855625 42.906875 15.71125 41.81375 15.5625 40.6875 C15.11711896 37.06877013 15.11711896 37.06877013 14 34 C11.51751876 34.33665915 11.51751876 34.33665915 9 36 C8.01832785 38.30628653 7.37282637 40.57132154 6.7734375 43.00390625 C6.51820312 43.66261719 6.26296875 44.32132813 6 45 C4.515 45.495 4.515 45.495 3 46 C3 45.34 3 44.68 3 44 C1.02 44.495 1.02 44.495 -1 45 C-1.33 43.68 -1.66 42.36 -2 41 C-2.99 41.66 -3.98 42.32 -5 43 C-5.33 42.67 -5.66 42.34 -6 42 C-6.33 42.66 -6.66 43.32 -7 44 C-7.99 44 -8.98 44 -10 44 C-9.814375 44.825 -9.62875 45.65 -9.4375 46.5 C-8.9225916 50.61926719 -9.36507072 53.90823355 -10 58 C-10.66 58 -11.32 58 -12 58 C-12 58.66 -12 59.32 -12 60 C-14.7019433 59.63487253 -16.58390852 59.30130763 -18.8125 57.6875 C-20 56 -20 56 -20 52 C-18.68 51.34 -17.36 50.68 -16 50 C-16.495 48.515 -16.495 48.515 -17 47 C-17.99 47.495 -17.99 47.495 -19 48 C-20.01603857 42.20858017 -19.96263236 38.5415502 -18 33 C-17.34 33 -16.68 33 -16 33 C-15.67 31.68 -15.34 30.36 -15 29 C-14.34 29 -13.68 29 -13 29 C-13 28.34 -13 27.68 -13 27 C-12.02149805 25.97895449 -11.02019573 24.9793879 -10 24 C-9.67 23.34 -9.34 22.68 -9 22 C-8.01 22 -7.02 22 -6 22 C-6 21.34 -6 20.68 -6 20 C-5.34 20 -4.68 20 -4 20 C-4 19.34 -4 18.68 -4 18 C-0.62182575 17.15545644 1.67465243 16.89155081 5 18 C5 17.34 5 16.68 5 16 C4.34 16 3.68 16 3 16 C3 15.34 3 14.68 3 14 C3.66 14 4.32 14 5 14 C4.72459296 10.18186553 4.72459296 10.18186553 3 7 C1.34183216 6.31246699 -0.32459336 5.64438717 -2 5 C-2.33 5.66 -2.66 6.32 -3 7 C-3 6.01 -3 5.02 -3 4 C-2.34 3.67 -1.68 3.34 -1 3 C-0.67 2.01 -0.34 1.02 0 0 Z " fill="#403F43" transform="translate(81,28)"/>
<path d="M0 0 C2.05470042 1.6507107 2.86051664 3.06562454 3.84765625 5.484375 C3.18765625 5.484375 2.52765625 5.484375 1.84765625 5.484375 C2.34265625 6.969375 2.34265625 6.969375 2.84765625 8.484375 C0.37265625 7.989375 0.37265625 7.989375 -2.15234375 7.484375 C-2.64734375 5.504375 -2.64734375 5.504375 -3.15234375 3.484375 C-3.81234375 3.484375 -4.47234375 3.484375 -5.15234375 3.484375 C-6.49017768 3.16959054 -7.82438084 2.83849844 -9.15234375 2.484375 C-9.81234375 3.804375 -10.47234375 5.124375 -11.15234375 6.484375 C-11.81234375 6.484375 -12.47234375 6.484375 -13.15234375 6.484375 C-14.40899353 9.39037761 -15.15234375 11.28042084 -15.15234375 14.484375 C-16.14234375 14.484375 -17.13234375 14.484375 -18.15234375 14.484375 C-18.48234375 15.474375 -18.81234375 16.464375 -19.15234375 17.484375 C-20.14234375 17.484375 -21.13234375 17.484375 -22.15234375 17.484375 C-22.48234375 18.474375 -22.81234375 19.464375 -23.15234375 20.484375 C-21.92257813 20.46697266 -21.92257813 20.46697266 -20.66796875 20.44921875 C-19.05148438 20.43568359 -19.05148438 20.43568359 -17.40234375 20.421875 C-15.80132812 20.40447266 -15.80132812 20.40447266 -14.16796875 20.38671875 C-11.57657749 20.47063686 -9.55411094 20.53773253 -7.15234375 21.484375 C-4.72289215 25.1285524 -4.990548 27.19678772 -5.15234375 31.484375 C-4.16234375 31.814375 -3.17234375 32.144375 -2.15234375 32.484375 C-3.80234375 33.144375 -5.45234375 33.804375 -7.15234375 34.484375 C-7.15234375 35.474375 -7.15234375 36.464375 -7.15234375 37.484375 C-7.81234375 37.484375 -8.47234375 37.484375 -9.15234375 37.484375 C-9.15234375 38.144375 -9.15234375 38.804375 -9.15234375 39.484375 C-10.80234375 40.144375 -12.45234375 40.804375 -14.15234375 41.484375 C-14.23317866 45.04111117 -14.04208203 48.05252735 -13.15234375 51.484375 C-14.15234375 52.484375 -14.15234375 52.484375 -16.1484375 52.58203125 C-16.95410156 52.57042969 -17.75976562 52.55882812 -18.58984375 52.546875 C-19.39292969 52.53785156 -20.19601563 52.52882812 -21.0234375 52.51953125 C-21.72597656 52.50792969 -22.42851563 52.49632812 -23.15234375 52.484375 C-23.81234375 52.484375 -24.47234375 52.484375 -25.15234375 52.484375 C-23.83234375 53.474375 -22.51234375 54.464375 -21.15234375 55.484375 C-23.44474382 55.42452121 -25.73640581 55.33578473 -28.02734375 55.234375 C-29.30351563 55.18796875 -30.5796875 55.1415625 -31.89453125 55.09375 C-35.15234375 54.484375 -35.15234375 54.484375 -36.61328125 52.75 C-37.23379744 50.14203339 -37.21076913 48.14657303 -36.90234375 45.484375 C-36.77085938 44.2159375 -36.77085938 44.2159375 -36.63671875 42.921875 C-36.14899644 40.46753048 -35.27815723 38.69815948 -34.15234375 36.484375 C-34.45039382 34.28690369 -34.45039382 34.28690369 -35.15234375 32.484375 C-33.83234375 32.814375 -32.51234375 33.144375 -31.15234375 33.484375 C-31.15234375 34.144375 -31.15234375 34.804375 -31.15234375 35.484375 C-29.41984375 35.236875 -29.41984375 35.236875 -27.65234375 34.984375 C-23.45326572 34.45199189 -19.38171334 34.40885054 -15.15234375 34.484375 C-15.15234375 33.494375 -15.15234375 32.504375 -15.15234375 31.484375 C-14.49234375 31.484375 -13.83234375 31.484375 -13.15234375 31.484375 C-13.15234375 32.144375 -13.15234375 32.804375 -13.15234375 33.484375 C-11.83234375 33.484375 -10.51234375 33.484375 -9.15234375 33.484375 C-9.42851908 31.54362639 -9.42851908 31.54362639 -10.15234375 29.484375 C-13.80194271 27.05130903 -15.92599695 27.12845409 -20.27734375 26.921875 C-25.93431126 26.62227206 -31.52910587 26.17494807 -37.15234375 25.484375 C-36.86875 24.97519531 -36.58515625 24.46601563 -36.29296875 23.94140625 C-35.11329372 21.40025696 -34.30604533 18.83406507 -33.50463867 16.15332031 C-31.28636237 8.85557793 -29.19290457 2.42114243 -22.30859375 -1.58984375 C-14.24976609 -5.12357572 -7.50672013 -4.28955436 0 0 Z " fill="#3A3A3E" transform="translate(63.15234375,3.515625)"/>
<path d="M0 0 C3.15164485 3.45096308 3.8776281 7.02369126 4.625 11.5 C4.75124756 12.21051514 4.87749512 12.92103027 5.00756836 13.65307617 C5.72799218 17.86525831 6.24394258 22.04830156 6.5625 26.3125 C6.68625 27.73755859 6.68625 27.73755859 6.8125 29.19140625 C7 32 7 32 6.9375 34.90234375 C7.08279862 38.21242796 7.34586125 40.10525718 9 43 C12.66869599 45.7605917 16.86955363 47.4864697 21.08203125 49.24609375 C26.57710732 51.55649363 30.40365831 54.57128556 33 60 C35.94764485 67.37590393 36.36593603 74.11204555 36 82 C34.68 82 33.36 82 32 82 C31.34 80.35 30.68 78.7 30 77 C29.01 77 28.02 77 27 77 C27 76.34 27 75.68 27 75 C23.535 74.505 23.535 74.505 20 74 C20 75.32 20 76.64 20 78 C19.34 78 18.68 78 18 78 C18 77.34 18 76.68 18 76 C16.515 76.495 16.515 76.495 15 77 C13.515 76.01 13.515 76.01 12 75 C12 73.68 12 72.36 12 71 C10.02 70.67 8.04 70.34 6 70 C6.99 69.505 6.99 69.505 8 69 C8 68.01 8 67.02 8 66 C6.68 66 5.36 66 4 66 C4 67.32 4 68.64 4 70 C3.34 70 2.68 70 2 70 C1.67 66.37 1.34 62.74 1 59 C5.62 58.01 10.24 57.02 15 56 C10.50452823 55.10090565 9.03229003 54.98292599 4.875 56 C0.32161687 57.10720562 0.32161687 57.10720562 -3 56 C-2.67 55.34 -2.34 54.68 -2 54 C-0.95299164 50.85897492 -0.96689994 48.30998208 -1.05859375 45.02734375 C-0.96762077 41.87967847 0.13069791 39.01698962 1 36 C3.34332063 21.58223761 3.34332063 21.58223761 0 8 C-1.09658936 4.71023192 -0.79953138 3.28696233 0 0 Z " fill="#5D5E62" transform="translate(112,66)"/>
<path d="M0 0 C0.495 0.99 0.495 0.99 1 2 C-3.95 2.66 -8.9 3.32 -14 4 C-13.67 4.99 -13.34 5.98 -13 7 C-12.87218214 9.67394964 -12.95608129 12.32095857 -13 15 C-12.34 15 -11.68 15 -11 15 C-11 13.68 -11 12.36 -11 11 C-9.68 11 -8.36 11 -7 11 C-7 11.99 -7 12.98 -7 14 C-5.68 14.66 -4.36 15.32 -3 16 C-3 17.32 -3 18.64 -3 20 C-1.02 20.33 0.96 20.66 3 21 C3 21.66 3 22.32 3 23 C3.66 23 4.32 23 5 23 C5 21.68 5 20.36 5 19 C7.31 19.33 9.62 19.66 12 20 C12 20.66 12 21.32 12 22 C12.99 22 13.98 22 15 22 C15.66 23.65 16.32 25.3 17 27 C-3.46 27 -23.92 27 -45 27 C-45 25.68 -45 24.36 -45 23 C-43.02 23 -41.04 23 -39 23 C-39 21.68 -39 20.36 -39 19 C-39.66 19 -40.32 19 -41 19 C-40.67 18.01 -40.34 17.02 -40 16 C-39.360625 15.855625 -38.72125 15.71125 -38.0625 15.5625 C-37.381875 15.376875 -36.70125 15.19125 -36 15 C-34.94978897 13.15028304 -34.94978897 13.15028304 -34 11 C-32.66666667 9.66666667 -31.33333333 8.33333333 -30 7 C-29.67 6.01 -29.34 5.02 -29 4 C-28.01 4.33 -27.02 4.66 -26 5 C-25.67 7.31 -25.34 9.62 -25 12 C-24.46375 11.38125 -23.9275 10.7625 -23.375 10.125 C-20.68896977 7.7217098 -18.44585438 6.93977847 -15 6 C-15 5.34 -15 4.68 -15 4 C-15.99 3.67 -16.98 3.34 -18 3 C-18 2.34 -18 1.68 -18 1 C-17.154375 1.04125 -16.30875 1.0825 -15.4375 1.125 C-11.93019646 1.14133491 -11.93019646 1.14133491 -8.4375 -0.0625 C-5.01734102 -0.99527063 -3.30624125 -1.16690867 0 0 Z " fill="#313132" transform="translate(127,121)"/>
<path d="M0 0 C0.66 0 1.32 0 2 0 C2 1.32 2 2.64 2 4 C2.66 4.33 3.32 4.66 4 5 C3.67 5.99 3.34 6.98 3 8 C3.66 8 4.32 8 5 8 C5 7.01 5 6.02 5 5 C6.32 5.33 7.64 5.66 9 6 C8.34 10.29 7.68 14.58 7 19 C6.34 19 5.68 19 5 19 C4.855625 19.969375 4.71125 20.93875 4.5625 21.9375 C4 25 4 25 3 26 C2.95334266 28.33286681 2.96237049 30.66697011 3 33 C3.03762951 35.33302989 3.04665734 37.66713319 3 40 C2 41 2 41 -1.37890625 41.09765625 C-2.77347492 41.09191424 -4.16801597 41.07890228 -5.5625 41.0625 C-8.016875 41.041875 -10.47125 41.02125 -13 41 C-13 32.42 -13 23.84 -13 15 C-11.515 15.99 -11.515 15.99 -10 17 C-9.34 16.34 -8.68 15.68 -8 15 C-7.34 15 -6.68 15 -6 15 C-5.67 12.69 -5.34 10.38 -5 8 C-4.01 9.485 -4.01 9.485 -3 11 C-3 10.34 -3 9.68 -3 9 C-3 7 -3 5 -3 3 C-2.34 3.33 -1.68 3.66 -1 4 C-0.67 4.99 -0.34 5.98 0 7 C-0.185625 6.030625 -0.37125 5.06125 -0.5625 4.0625 C-0.706875 3.051875 -0.85125 2.04125 -1 1 C-0.67 0.67 -0.34 0.34 0 0 Z " fill="#1C1C1E" transform="translate(25,107)"/>
<path d="M0 0 C3.15164485 3.45096308 3.8776281 7.02369126 4.625 11.5 C4.75124756 12.21051514 4.87749512 12.92103027 5.00756836 13.65307617 C5.72799218 17.86525831 6.24394258 22.04830156 6.5625 26.3125 C6.68625 27.73755859 6.68625 27.73755859 6.8125 29.19140625 C7 32 7 32 6.9375 34.90234375 C7.08351717 38.22879748 7.32749626 40.09419112 9 43 C13.78598583 46.61235685 19.46617794 48.80033725 25 51 C25 51.66 25 52.32 25 53 C22.525 53.495 22.525 53.495 20 54 C20 54.66 20 55.32 20 56 C21.32 56 22.64 56 24 56 C24 56.66 24 57.32 24 58 C16.25 57.25 16.25 57.25 14 55 C11.94881302 54.94019242 11.94881302 54.94019242 9.6875 55.3125 C8.88441406 55.41949219 8.08132812 55.52648437 7.25390625 55.63671875 C5.53500577 55.91376857 3.82634668 56.25514203 2.125 56.625 C0 57 0 57 -3 56 C-2.67 55.34 -2.34 54.68 -2 54 C-0.95299164 50.85897492 -0.96689994 48.30998208 -1.05859375 45.02734375 C-0.96762077 41.87967847 0.13069791 39.01698962 1 36 C3.34332063 21.58223761 3.34332063 21.58223761 0 8 C-1.09658936 4.71023192 -0.79953138 3.28696233 0 0 Z " fill="#4E4D54" transform="translate(112,66)"/>
<path d="M0 0 C1.65 0.33 3.3 0.66 5 1 C5 1.66 5 2.32 5 3 C6.051875 3.2475 6.051875 3.2475 7.125 3.5 C12.79156876 6.45647066 16.83429565 13.10447149 19 19 C19.2238446 22.01941488 19.18123063 24.9794895 19 28 C19.66 28.33 20.32 28.66 21 29 C22.85941501 34.17979895 21.23263012 37.87474051 19.30078125 42.73046875 C18 45 18 45 14 48 C14 43.05 14 38.1 14 33 C13.01 33.495 13.01 33.495 12 34 C12 32.02 12 30.04 12 28 C11.34 28 10.68 28 10 28 C10 25.03 10 22.06 10 19 C8.824375 18.5359375 8.824375 18.5359375 7.625 18.0625 C5 17 5 17 3 16 C3 14.68 3 13.36 3 12 C1.68 11.67 0.36 11.34 -1 11 C-1 10.34 -1 9.68 -1 9 C-1.66 9 -2.32 9 -3 9 C-2.44271087 5.65626525 -1.64826111 2.96687001 0 0 Z " fill="#3B3B3D" transform="translate(93,45)"/>
<path d="M0 0 C0.33 0.66 0.66 1.32 1 2 C-3.95 2.66 -8.9 3.32 -14 4 C-13.67 4.99 -13.34 5.98 -13 7 C-12.87218214 9.67394964 -12.95608129 12.32095857 -13 15 C-12.34 15 -11.68 15 -11 15 C-11 13.68 -11 12.36 -11 11 C-9.68 11 -8.36 11 -7 11 C-7 11.99 -7 12.98 -7 14 C-5.68 14.66 -4.36 15.32 -3 16 C-3 17.32 -3 18.64 -3 20 C-1.02 20.33 0.96 20.66 3 21 C3 21.66 3 22.32 3 23 C3.66 23 4.32 23 5 23 C5 21.68 5 20.36 5 19 C7.31 19.33 9.62 19.66 12 20 C12 20.66 12 21.32 12 22 C12.99 22 13.98 22 15 22 C15.66 23.65 16.32 25.3 17 27 C7.43 27 -2.14 27 -12 27 C-12.33 25.68 -12.66 24.36 -13 23 C-13.99 22.67 -14.98 22.34 -16 22 C-16 21.01 -16 20.02 -16 19 C-16.66 19 -17.32 19 -18 19 C-18.02708567 17.39592672 -18.04643483 15.7917215 -18.0625 14.1875 C-18.07410156 13.29417969 -18.08570312 12.40085938 -18.09765625 11.48046875 C-18 9 -18 9 -17 6 C-16.34 6 -15.68 6 -15 6 C-15 5.34 -15 4.68 -15 4 C-15.99 3.67 -16.98 3.34 -18 3 C-18 2.34 -18 1.68 -18 1 C-17.154375 1.04125 -16.30875 1.0825 -15.4375 1.125 C-11.93019646 1.14133491 -11.93019646 1.14133491 -8.4375 -0.0625 C-5.01734102 -0.99527063 -3.30624125 -1.16690867 0 0 Z " fill="#47464A" transform="translate(127,121)"/>
<path d="M0 0 C0.33 0.99 0.66 1.98 1 3 C3.64 3.33 6.28 3.66 9 4 C8.979375 4.9075 8.95875 5.815 8.9375 6.75 C8.9889755 9.42672588 9.2215017 11.46988052 10 14 C9.01 14.495 9.01 14.495 8 15 C7.67 13.68 7.34 12.36 7 11 C6.67 12.65 6.34 14.3 6 16 C6.66 16.33 7.32 16.66 8 17 C3 23.57142857 3 23.57142857 -2 25 C-2.33 24.34 -2.66 23.68 -3 23 C-3.33 28.94 -3.66 34.88 -4 41 C-4.33 41 -4.66 41 -5 41 C-5.07416067 36.35526018 -5.12860615 31.71086501 -5.16479492 27.06567383 C-5.17988094 25.48553464 -5.2003525 23.90543731 -5.22631836 22.32543945 C-5.26271126 20.05409415 -5.27972762 17.78330241 -5.29296875 15.51171875 C-5.30845261 14.80536789 -5.32393646 14.09901703 -5.33988953 13.3712616 C-5.34158612 8.42613086 -5.34158612 8.42613086 -3.5559082 6.19848633 C-3.0424585 5.80298584 -2.52900879 5.40748535 -2 5 C-0.80972016 2.40084462 -0.80972016 2.40084462 0 0 Z " fill="#3B3B3C" transform="translate(16,100)"/>
<path d="M0 0 C2.05470042 1.6507107 2.86051664 3.06562454 3.84765625 5.484375 C3.18765625 5.484375 2.52765625 5.484375 1.84765625 5.484375 C2.34265625 6.969375 2.34265625 6.969375 2.84765625 8.484375 C0.37265625 7.989375 0.37265625 7.989375 -2.15234375 7.484375 C-2.48234375 6.164375 -2.81234375 4.844375 -3.15234375 3.484375 C-3.81234375 3.484375 -4.47234375 3.484375 -5.15234375 3.484375 C-5.79171875 3.13375 -6.43109375 2.783125 -7.08984375 2.421875 C-9.27393077 1.14687562 -9.27393077 1.14687562 -12.15234375 2.484375 C-12.81234375 2.154375 -13.47234375 1.824375 -14.15234375 1.484375 C-14.48234375 2.144375 -14.81234375 2.804375 -15.15234375 3.484375 C-15.48234375 3.154375 -15.81234375 2.824375 -16.15234375 2.484375 C-18.15955298 2.77111918 -20.16093815 3.10304201 -22.15234375 3.484375 C-22.15234375 4.144375 -22.15234375 4.804375 -22.15234375 5.484375 C-22.81234375 5.484375 -23.47234375 5.484375 -24.15234375 5.484375 C-23.82234375 6.144375 -23.49234375 6.804375 -23.15234375 7.484375 C-21.17234375 7.484375 -19.19234375 7.484375 -17.15234375 7.484375 C-17.15234375 8.144375 -17.15234375 8.804375 -17.15234375 9.484375 C-17.71824219 9.67773438 -18.28414062 9.87109375 -18.8671875 10.0703125 C-19.60066406 10.33070312 -20.33414063 10.59109375 -21.08984375 10.859375 C-21.82074219 11.11460938 -22.55164062 11.36984375 -23.3046875 11.6328125 C-25.33916491 12.33708913 -25.33916491 12.33708913 -26.15234375 14.484375 C-27.14234375 14.484375 -28.13234375 14.484375 -29.15234375 14.484375 C-28.82234375 13.494375 -28.49234375 12.504375 -28.15234375 11.484375 C-28.81234375 10.494375 -29.47234375 9.504375 -30.15234375 8.484375 C-29.11865753 3.57436545 -26.12208336 1.30899741 -22.15234375 -1.515625 C-14.19981806 -5.22680365 -7.41327525 -4.23615729 0 0 Z " fill="#4E4E4E" transform="translate(63.15234375,3.515625)"/>
<path d="M0 0 C-0.66 1.32 -1.32 2.64 -2 4 C-2.66 4 -3.32 4 -4 4 C-5.25664978 6.90600261 -6 8.79604584 -6 12 C-6.99 12 -7.98 12 -9 12 C-9.33 12.99 -9.66 13.98 -10 15 C-10.99 15 -11.98 15 -13 15 C-13.33 15.99 -13.66 16.98 -14 18 C-17.73567172 18.76411467 -20.34811918 19.07174763 -24 18 C-23.85831863 16.56208484 -23.71148957 15.1246763 -23.5625 13.6875 C-23.48128906 12.88699219 -23.40007813 12.08648437 -23.31640625 11.26171875 C-23 9 -23 9 -22 6 C-19.525 6.99 -19.525 6.99 -17 8 C-17.99 9.32 -18.98 10.64 -20 12 C-19.01 12 -18.02 12 -17 12 C-16.7215625 11.0409375 -16.7215625 11.0409375 -16.4375 10.0625 C-15 8 -15 8 -11.375 7.25 C-9.704375 7.12625 -9.704375 7.12625 -8 7 C-8 6.34 -8 5.68 -8 5 C-10.31 5.33 -12.62 5.66 -15 6 C-15 5.01 -15 4.02 -15 3 C-14.34 3 -13.68 3 -13 3 C-13 2.34 -13 1.68 -13 1 C-8.23947038 -0.97387813 -5.03511899 -1.0070238 0 0 Z " fill="#383838" transform="translate(54,6)"/>
<path d="M0 0 C1.5625 1.5625 1.5625 1.5625 3 4 C2.6875 7.75 2.6875 7.75 2 11 C1.34 10.67 0.68 10.34 0 10 C-0.66 11.32 -1.32 12.64 -2 14 C-2 13.01 -2 12.02 -2 11 C-2.99 11 -3.98 11 -5 11 C-5 11.66 -5 12.32 -5 13 C-4.34 13.33 -3.68 13.66 -3 14 C-3.99 14 -4.98 14 -6 14 C-6 14.66 -6 15.32 -6 16 C-5.01 16.33 -4.02 16.66 -3 17 C-5.64 17 -8.28 17 -11 17 C-11 17.66 -11 18.32 -11 19 C-9.02 18.67 -7.04 18.34 -5 18 C-5 18.66 -5 19.32 -5 20 C-5.804375 20.28875 -6.60875 20.5775 -7.4375 20.875 C-10.1326468 21.73262568 -10.1326468 21.73262568 -11 24 C-11.99 24 -12.98 24 -14 24 C-14 24.66 -14 25.32 -14 26 C-13.01 26 -12.02 26 -11 26 C-11.43696905 30.8066595 -12.38081956 32.83321712 -16 36 C-16.33 36.66 -16.66 37.32 -17 38 C-17.66 38 -18.32 38 -19 38 C-18.125 31.125 -18.125 31.125 -17 30 C-17.66 30 -18.32 30 -19 30 C-19 27.69 -19 25.38 -19 23 C-18.34 23 -17.68 23 -17 23 C-16.9071875 22.13375 -16.9071875 22.13375 -16.8125 21.25 C-15.65799152 18.05289959 -13.78452021 16.8563468 -11 15 C-10.01 15 -9.02 15 -8 15 C-7.34 13.02 -6.68 11.04 -6 9 C-5.01 9 -4.02 9 -3 9 C-3 8.01 -3 7.02 -3 6 C-2.34 6 -1.68 6 -1 6 C-1.020625 5.195625 -1.04125 4.39125 -1.0625 3.5625 C-1 1 -1 1 0 0 Z " fill="#313132" transform="translate(51,98)"/>
<path d="M0 0 C1.65 0.33 3.3 0.66 5 1 C5 1.66 5 2.32 5 3 C6.051875 3.2475 6.051875 3.2475 7.125 3.5 C12.90780581 6.51711608 16.60291617 13.0777929 19 19 C18.67 19.66 18.34 20.32 18 21 C17.59007813 20.4225 17.18015625 19.845 16.7578125 19.25 C16.21898438 18.5075 15.68015625 17.765 15.125 17 C14.32449219 15.88625 14.32449219 15.88625 13.5078125 14.75 C12.76144531 13.88375 12.76144531 13.88375 12 13 C11.34 13 10.68 13 10 13 C9.67 13.66 9.34 14.32 9 15 C9.99 15.33 10.98 15.66 12 16 C12.6875 18.0625 12.6875 18.0625 13 20 C12.01 20.33 11.02 20.66 10 21 C10 20.34 10 19.68 10 19 C8.824375 18.5359375 8.824375 18.5359375 7.625 18.0625 C5 17 5 17 3 16 C3 14.68 3 13.36 3 12 C1.68 11.67 0.36 11.34 -1 11 C-1 10.34 -1 9.68 -1 9 C-1.66 9 -2.32 9 -3 9 C-2.44271087 5.65626525 -1.64826111 2.96687001 0 0 Z " fill="#49484E" transform="translate(93,45)"/>
<path d="M0 0 C3.08439243 0.08109748 6.16683912 0.19391689 9.25 0.3125 C10.12269531 0.33505859 10.99539062 0.35761719 11.89453125 0.38085938 C15.54433324 0.53409534 18.30837054 0.65729139 21.609375 2.29296875 C23 4 23 4 23 8 C21.68 8 20.36 8 19 8 C19 7.34 19 6.68 19 6 C18.34 6 17.68 6 17 6 C17 6.99 17 7.98 17 9 C11.59255982 9.77249145 6.46137814 10.09752461 1 10 C1 9.34 1 8.68 1 8 C0.34 8 -0.32 8 -1 8 C-1 7.01 -1 6.02 -1 5 C-1.66 4.67 -2.32 4.34 -3 4 C-2.67 3.34 -2.34 2.68 -2 2 C-1.34 2 -0.68 2 0 2 C0 1.34 0 0.68 0 0 Z " fill="#1E2024" transform="translate(31,29)"/>
<path d="M0 0 C0.33 0.66 0.66 1.32 1 2 C3.02463255 2.65213292 3.02463255 2.65213292 5 3 C3.25 8.75 3.25 8.75 1 11 C0.67 9.68 0.34 8.36 0 7 C-0.99 7.66 -1.98 8.32 -3 9 C-3.33 8.67 -3.66 8.34 -4 8 C-4.33 8.66 -4.66 9.32 -5 10 C-5.99 10 -6.98 10 -8 10 C-7.814375 10.825 -7.62875 11.65 -7.4375 12.5 C-6.9225916 16.61926719 -7.36507072 19.90823355 -8 24 C-8.66 24 -9.32 24 -10 24 C-10 24.66 -10 25.32 -10 26 C-12.7019433 25.63487253 -14.58390852 25.30130763 -16.8125 23.6875 C-18 22 -18 22 -18 18 C-17.360625 17.79375 -16.72125 17.5875 -16.0625 17.375 C-13.65074923 16.10461791 -13.65074923 16.10461791 -13.25 12.875 C-13.1675 11.92625 -13.085 10.9775 -13 10 C-12.34 10 -11.68 10 -11 10 C-10.67 9.01 -10.34 8.02 -10 7 C-9.01 7 -8.02 7 -7 7 C-6.896875 6.360625 -6.79375 5.72125 -6.6875 5.0625 C-6.460625 4.381875 -6.23375 3.70125 -6 3 C-5.01 2.67 -4.02 2.34 -3 2 C-3 2.99 -3 3.98 -3 5 C-2.34 5 -1.68 5 -1 5 C-0.67 3.35 -0.34 1.7 0 0 Z " fill="#3B3B3D" transform="translate(79,62)"/>
<path d="M0 0 C2.83758548 2.19684037 4.33272933 4.29045866 5.9375 7.5 C5.1875 10.875 5.1875 10.875 3.9375 13.5 C0.41805801 12.68903238 -2.81471094 11.4631246 -6.16015625 10.12109375 C-8.20428078 9.34481711 -8.20428078 9.34481711 -11.0625 9.5 C-11.3925 10.82 -11.7225 12.14 -12.0625 13.5 C-13.0525 13.5 -14.0425 13.5 -15.0625 13.5 C-15.0625 11.52 -15.0625 9.54 -15.0625 7.5 C-16.3825 7.17 -17.7025 6.84 -19.0625 6.5 C-14.63845232 3.66860949 -10.14256077 4.1459471 -5.125 5 C-4.444375 5.165 -3.76375 5.33 -3.0625 5.5 C-3.0625 4.84 -3.0625 4.18 -3.0625 3.5 C-4.3825 3.5 -5.7025 3.5 -7.0625 3.5 C-7.0625 2.84 -7.0625 2.18 -7.0625 1.5 C-2.73596939 -0.66326531 -2.73596939 -0.66326531 0 0 Z " fill="#64676E" transform="translate(139.0625,118.5)"/>
<path d="M0 0 C1.32 0.33 2.64 0.66 4 1 C4 2.32 4 3.64 4 5 C6.97 5.495 6.97 5.495 10 6 C10 6.66 10 7.32 10 8 C10.66 8 11.32 8 12 8 C12 6.68 12 5.36 12 4 C14.31 4.33 16.62 4.66 19 5 C19 5.66 19 6.32 19 7 C19.99 7 20.98 7 22 7 C22.66 8.65 23.32 10.3 24 12 C16.08 12 8.16 12 0 12 C0.33 10.02 0.66 8.04 1 6 C0.62382706 2.73589643 0.62382706 2.73589643 0 0 Z " fill="#3D3D3F" transform="translate(120,136)"/>
<path d="M0 0 C2.97 0.33 5.94 0.66 9 1 C12.42857143 9.42857143 12.42857143 9.42857143 12 14 C5.375 14.125 5.375 14.125 2 13 C1.67 12.34 1.34 11.68 1 11 C-0.97888961 10.27306096 -2.97954558 9.60183749 -5 9 C-5 8.34 -5 7.68 -5 7 C-5.99 7 -6.98 7 -8 7 C-8 6.01 -8 5.02 -8 4 C-7.43796875 4.17402344 -6.8759375 4.34804688 -6.296875 4.52734375 C-3.75443245 5.05053346 -1.81547663 4.90204838 0.75 4.5625 C1.54921875 4.46066406 2.3484375 4.35882813 3.171875 4.25390625 C3.77515625 4.17011719 4.3784375 4.08632813 5 4 C5 3.34 5 2.68 5 2 C3.35 2 1.7 2 0 2 C0 1.34 0 0.68 0 0 Z " fill="#484A51" transform="translate(36,41)"/>
<path d="M0 0 C0 1.32 0 2.64 0 4 C0.66 4.33 1.32 4.66 2 5 C1.34 5 0.68 5 0 5 C0 5.99 0 6.98 0 8 C0.99 8.33 1.98 8.66 3 9 C1.68 9 0.36 9 -1 9 C-1 8.01 -1 7.02 -1 6 C-1.598125 6.33 -2.19625 6.66 -2.8125 7 C-5 8 -5 8 -8 8 C-8 9.32 -8 10.64 -8 12 C-8.66 12 -9.32 12 -10 12 C-10.33 8.37 -10.66 4.74 -11 1 C-3.57142857 -1.42857143 -3.57142857 -1.42857143 0 0 Z M4 3 C6.31 3.33 8.62 3.66 11 4 C10.67 5.32 10.34 6.64 10 8 C9.01 7.34 8.02 6.68 7 6 C7.57344937 8.86724686 7.8614515 9.8614515 10 12 C7.68001641 11.60000283 6.13676576 11.09432121 4.1875 9.75 C3 8 3 8 3.3125 5.3125 C3.539375 4.549375 3.76625 3.78625 4 3 Z " fill="#60616A" transform="translate(124,124)"/>
<path d="M0 0 C2.65186289 1.09124008 5.29584828 2.19703619 7.9375 3.3125 C8.69224609 3.62123047 9.44699219 3.92996094 10.22460938 4.24804688 C11.30258789 4.70727539 11.30258789 4.70727539 12.40234375 5.17578125 C13.06741943 5.45333252 13.73249512 5.73088379 14.41772461 6.0168457 C16 7 16 7 17 10 C15.35 10.33 13.7 10.66 12 11 C12 11.66 12 12.32 12 13 C13.32 13 14.64 13 16 13 C16 13.66 16 14.32 16 15 C12.93028534 15 10.85442493 14.98570069 8 14 C6.08778866 12.07116074 4.68761215 10.0979408 3.2265625 7.8125 C2.11737637 5.85447583 2.11737637 5.85447583 0 5 C0 3.35 0 1.7 0 0 Z " fill="#5C5C64" transform="translate(120,109)"/>
<path d="M0 0 C0.99 0 1.98 0 3 0 C3 0.99 3 1.98 3 3 C4.98 2.34 6.96 1.68 9 1 C9.28875 1.639375 9.5775 2.27875 9.875 2.9375 C10.82823451 5.15206079 10.82823451 5.15206079 13 6 C13 6.99 13 7.98 13 9 C14.32 9.33 15.64 9.66 17 10 C15.35 10 13.7 10 12 10 C12 11.32 12 12.64 12 14 C11.34 14 10.68 14 10 14 C10 13.34 10 12.68 10 12 C9.01 12.33 8.02 12.66 7 13 C6.01 12.34 5.02 11.68 4 11 C4 9.68 4 8.36 4 7 C1.03 6.505 1.03 6.505 -2 6 C-1.34 5.67 -0.68 5.34 0 5 C-0.2784375 4.0409375 -0.2784375 4.0409375 -0.5625 3.0625 C-0.7790625 2.0415625 -0.7790625 2.0415625 -1 1 C-0.67 0.67 -0.34 0.34 0 0 Z " fill="#4C4C4F" transform="translate(120,130)"/>
<path d="M0 0 C0.33 0 0.66 0 1 0 C0.03092784 11.58762887 0.03092784 11.58762887 -1 17 C-1.144375 17.86625 -1.28875 18.7325 -1.4375 19.625 C-2.0118969 22.05023134 -2.65178117 23.90277071 -4 26 C-4.99 26.33 -5.98 26.66 -7 27 C-7.66 27.66 -8.32 28.32 -9 29 C-9.66 28.67 -10.32 28.34 -11 28 C-11 27.34 -11 26.68 -11 26 C-10.401875 25.814375 -9.80375 25.62875 -9.1875 25.4375 C-5.99840451 23.34180868 -4.83267973 20.61061128 -4 17 C-3.90580905 12.11468783 -3.90580905 12.11468783 -6 8 C-6.04063832 6.33382885 -6.042721 4.66611905 -6 3 C-5.01 3 -4.02 3 -3 3 C-1.37485532 1.54166642 -1.37485532 1.54166642 0 0 Z M-3 5 C-3.33 5.99 -3.66 6.98 -4 8 C-3.34 8 -2.68 8 -2 8 C-2.33 7.01 -2.66 6.02 -3 5 Z " fill="#38383B" transform="translate(113,96)"/>
<path d="M0 0 C2.97 0.99 5.94 1.98 9 3 C9 3.66 9 4.32 9 5 C12.3 5.33 15.6 5.66 19 6 C19.33 4.68 19.66 3.36 20 2 C20.5625 3.9375 20.5625 3.9375 21 6 C20 7 20 7 18.00390625 7.09765625 C17.19824219 7.08605469 16.39257812 7.07445312 15.5625 7.0625 C14.35787109 7.04896484 14.35787109 7.04896484 13.12890625 7.03515625 C12.42636719 7.02355469 11.72382812 7.01195312 11 7 C10.34 7 9.68 7 9 7 C10.32 7.99 11.64 8.98 13 10 C6.07 9.505 6.07 9.505 -1 9 C-2.07349791 4.70600835 -1.79682816 3.80504787 0 0 Z " fill="#3D3D41" transform="translate(29,49)"/>
<path d="M0 0 C0 0.66 0 1.32 0 2 C1.98 2 3.96 2 6 2 C6 2.66 6 3.32 6 4 C7.65 4.66 9.3 5.32 11 6 C11 6.66 11 7.32 11 8 C7.02973711 7.44600983 3.70145675 6.50059058 0 5 C-0.99 5 -1.98 5 -3 5 C-3.33 6.32 -3.66 7.64 -4 9 C-4.99 9 -5.98 9 -7 9 C-7 7.02 -7 5.04 -7 3 C-8.32 2.67 -9.64 2.34 -11 2 C-7.36576791 -0.32590854 -4.22911669 -0.16265833 0 0 Z " fill="#71767F" transform="translate(131,123)"/>
<path d="M0 0 C1.85595105 3.46444197 3.33300647 6.2873953 2.5625 10.25 C2.376875 10.8275 2.19125 11.405 2 12 C1.34 12 0.68 12 0 12 C0 12.66 0 13.32 0 14 C-2.7019433 13.63487253 -4.58390852 13.30130763 -6.8125 11.6875 C-8 10 -8 10 -8 6 C-6.02 5.34 -4.04 4.68 -2 4 C-1.67 4.33 -1.34 4.66 -1 5 C-0.67 3.35 -0.34 1.7 0 0 Z " fill="#2F2F31" transform="translate(69,74)"/>
<path d="M0 0 C0.33 0.66 0.66 1.32 1 2 C3.03179594 2.46853709 3.03179594 2.46853709 5.47265625 2.6328125 C6.37177734 2.71660156 7.27089844 2.80039062 8.19726562 2.88671875 C9.61555664 3.00466797 9.61555664 3.00466797 11.0625 3.125 C12.01189453 3.21136719 12.96128906 3.29773438 13.93945312 3.38671875 C16.29235092 3.59954368 18.64568595 3.80357031 21 4 C21.33 4.99 21.66 5.98 22 7 C13.75 7 5.5 7 -3 7 C-2.34 5.68 -1.68 4.36 -1 3 C-0.67 2.01 -0.34 1.02 0 0 Z " fill="#5F6163" transform="translate(29,22)"/>
<path d="M0 0 C-0.99 0.495 -0.99 0.495 -2 1 C-2 1.66 -2 2.32 -2 3 C-0.35 3 1.3 3 3 3 C3 3.66 3 4.32 3 5 C-0.3 5.66 -3.6 6.32 -7 7 C-7 6.34 -7 5.68 -7 5 C-7.99 5 -8.98 5 -10 5 C-10 5.99 -10 6.98 -10 8 C-9.01 8.33 -8.02 8.66 -7 9 C-7.66 9 -8.32 9 -9 9 C-9.33 10.65 -9.66 12.3 -10 14 C-10.66 14 -11.32 14 -12 14 C-11.65894869 5.06445557 -11.65894869 5.06445557 -9.375 1.375 C-6.15376169 -0.48992744 -3.6538721 -0.28106708 0 0 Z " fill="#464951" transform="translate(38,40)"/>
<path d="M0 0 C3.15173867 1.35158831 4.81408764 2.69121836 6.796875 5.4765625 C7.28027344 6.146875 7.76367188 6.8171875 8.26171875 7.5078125 C8.75285156 8.20648438 9.24398437 8.90515625 9.75 9.625 C10.25660156 10.33140625 10.76320313 11.0378125 11.28515625 11.765625 C12.53096207 13.505052 13.7664963 15.25182752 15 17 C14.67 17.66 14.34 18.32 14 19 C10.125 17.125 10.125 17.125 9 16 C8.34 15.67 7.68 15.34 7 15 C7.04125 14.236875 7.0825 13.47375 7.125 12.6875 C7.22080824 9.77281584 7.22080824 9.77281584 5 7 C3.06381575 6.32843384 3.06381575 6.32843384 1 6 C0.01 5.67 -0.98 5.34 -2 5 C-2.33 5.66 -2.66 6.32 -3 7 C-3 6.01 -3 5.02 -3 4 C-2.34 3.67 -1.68 3.34 -1 3 C-0.67 2.01 -0.34 1.02 0 0 Z " fill="#505052" transform="translate(81,28)"/>
<path d="M0 0 C0.99 0 1.98 0 3 0 C5.93807071 3.08497425 8.83358823 6.81287385 9.1640625 11.15625 C8.875 13.0625 8.875 13.0625 8 16 C7.34 15.67 6.68 15.34 6 15 C5.375 11.9375 5.375 11.9375 5 9 C4.34 9 3.68 9 3 9 C3 10.65 3 12.3 3 14 C1.5 12.625 1.5 12.625 0 11 C0 9 0 9 2 7 C1.67 6.01 1.34 5.02 1 4 C0.34 3.67 -0.32 3.34 -1 3 C-0.67 2.01 -0.34 1.02 0 0 Z " fill="#403F44" transform="translate(103,57)"/>
<path d="M0 0 C2.97 0.33 5.94 0.66 9 1 C8 5 8 5 6.5 6.75 C2.75938814 8.62030593 -0.8887198 8.39371376 -5 8 C-5.99 7.67 -6.98 7.34 -8 7 C-8 6.01 -8 5.02 -8 4 C-7.43796875 4.17402344 -6.8759375 4.34804688 -6.296875 4.52734375 C-3.75443245 5.05053346 -1.81547663 4.90204838 0.75 4.5625 C1.54921875 4.46066406 2.3484375 4.35882813 3.171875 4.25390625 C3.77515625 4.17011719 4.3784375 4.08632813 5 4 C5 3.34 5 2.68 5 2 C3.35 2 1.7 2 0 2 C0 1.34 0 0.68 0 0 Z " fill="#6B7078" transform="translate(36,41)"/>
<path d="M0 0 C0.88935377 3.303314 1.46274105 6.62294375 2 10 C1.01 10.495 1.01 10.495 0 11 C-0.33 9.68 -0.66 8.36 -1 7 C-1.33 8.65 -1.66 10.3 -2 12 C-1.34 12.33 -0.68 12.66 0 13 C-0.99 13.99 -1.98 14.98 -3 16 C-3 14.35 -3 12.7 -3 11 C-3.66 11 -4.32 11 -5 11 C-5 10.01 -5 9.02 -5 8 C-5.66 8 -6.32 8 -7 8 C-6.67 6.02 -6.34 4.04 -6 2 C-4.35 2.33 -2.7 2.66 -1 3 C-0.67 2.01 -0.34 1.02 0 0 Z " fill="#303032" transform="translate(24,104)"/>
<path d="M0 0 C0.33 0.66 0.66 1.32 1 2 C0.67 2.99 0.34 3.98 0 5 C1.32 4.34 2.64 3.68 4 3 C3.566875 4.07507812 3.566875 4.07507812 3.125 5.171875 C2.40213469 6.98907808 1.69261836 8.81167965 1 10.640625 C0.67 11.50171875 0.34 12.3628125 0 13.25 C-0.33 14.12140625 -0.66 14.9928125 -1 15.890625 C-2 18 -2 18 -4 19 C-5.01603857 13.20858017 -4.96263236 9.5415502 -3 4 C-2.34 4 -1.68 4 -1 4 C-0.67 2.68 -0.34 1.36 0 0 Z " fill="#343435" transform="translate(66,57)"/>
<path d="M0 0 C0.99 1.65 1.98 3.3 3 5 C-4.26 5 -11.52 5 -19 5 C-19.33 4.34 -19.66 3.68 -20 3 C-14.39 3.33 -8.78 3.66 -3 4 C-3.33 3.34 -3.66 2.68 -4 2 C-7.04581269 1.53045739 -7.04581269 1.53045739 -10.5625 1.375 C-11.76003906 1.30023437 -12.95757812 1.22546875 -14.19140625 1.1484375 C-15.11824219 1.09945313 -16.04507813 1.05046875 -17 1 C-17 0.67 -17 0.34 -17 0 C-5.33816425 -1.52518979 -5.33816425 -1.52518979 0 0 Z " fill="#45474A" transform="translate(54,25)"/>
<path d="M0 0 C1.65 0.33 3.3 0.66 5 1 C5 1.66 5 2.32 5 3 C5.66 3.33 6.32 3.66 7 4 C5.02 4.99 5.02 4.99 3 6 C3.33 6.99 3.66 7.98 4 9 C3.67 9.66 3.34 10.32 3 11 C1.68 11 0.36 11 -1 11 C-1 10.34 -1 9.68 -1 9 C-1.66 9 -2.32 9 -3 9 C-2.44271087 5.65626525 -1.64826111 2.96687001 0 0 Z " fill="#5A595F" transform="translate(93,45)"/>
<path d="M0 0 C1.32 0 2.64 0 4 0 C4.33 3.3 4.66 6.6 5 10 C4 10 3 10 2 10 C1.67 11.32 1.34 12.64 1 14 C0.67 12.68 0.34 11.36 0 10 C-0.99 10 -1.98 10 -3 10 C-2.39009109 6.44219804 -1.4216319 3.3171411 0 0 Z " fill="#2C2C2E" transform="translate(43,126)"/>
<path d="M0 0 C3.11341077 3.42649118 3.87555806 6.93669135 4.625 11.375 C4.74979736 12.07238281 4.87459473 12.76976563 5.00317383 13.48828125 C6.16272439 20.2963127 6.68740244 27.10129525 7 34 C6.34 33.67 5.68 33.34 5 33 C4.5859375 30.49609375 4.5859375 30.49609375 4.375 27.4375 C4.30023438 26.42558594 4.22546875 25.41367188 4.1484375 24.37109375 C4.09945312 23.58863281 4.05046875 22.80617188 4 22 C3.67 22 3.34 22 3 22 C2.34 17.38 1.68 12.76 1 8 C0.34 8 -0.32 8 -1 8 C-0.67 5.36 -0.34 2.72 0 0 Z " fill="#636267" transform="translate(112,66)"/>
<path d="M0 0 C-0.33 0.99 -0.66 1.98 -1 3 C-2.65 3 -4.3 3 -6 3 C-6 4.65 -6 6.3 -6 8 C-6.66 8 -7.32 8 -8 8 C-8 9.32 -8 10.64 -8 12 C-8.66 12 -9.32 12 -10 12 C-10.33 8.37 -10.66 4.74 -11 1 C-3.57142857 -1.42857143 -3.57142857 -1.42857143 0 0 Z " fill="#55555C" transform="translate(124,124)"/>
<path d="M0 0 C0.33 0 0.66 0 1 0 C1.06058594 0.85464844 1.12117188 1.70929688 1.18359375 2.58984375 C1.26738281 3.69457031 1.35117188 4.79929687 1.4375 5.9375 C1.51871094 7.03964844 1.59992188 8.14179687 1.68359375 9.27734375 C1.70418084 11.91109903 1.70418084 11.91109903 3 13 C3.04080783 14.99958364 3.04254356 17.00045254 3 19 C0.53199953 17.84826645 -1.04783565 16.95216435 -3 15 C-3.046875 12.5390625 -3.046875 12.5390625 -2.75 9.625 C-2.66234375 8.66851562 -2.5746875 7.71203125 -2.484375 6.7265625 C-2.0201582 4.11347118 -1.31988824 2.28275753 0 0 Z " fill="#4E4D53" transform="translate(116,87)"/>
<path d="M0 0 C0.66 0 1.32 0 2 0 C1.67 1.32 1.34 2.64 1 4 C1.66 4 2.32 4 3 4 C2.42415568 6.38564077 1.77772405 8.66682784 1 11 C-0.175625 11.2165625 -0.175625 11.2165625 -1.375 11.4375 C-3.96421018 11.87798925 -3.96421018 11.87798925 -6 13 C-5.34 9.7 -4.68 6.4 -4 3 C-3.34 4.32 -2.68 5.64 -2 7 C-2 5.35 -2 3.7 -2 2 C-1.34 2 -0.68 2 0 2 C0 1.34 0 0.68 0 0 Z " fill="#333335" transform="translate(81,99)"/>
<path d="M0 0 C1.98 0 3.96 0 6 0 C7.80411967 2.75924185 8.0127245 3.88972103 7.625 7.25 C7.41875 8.1575 7.2125 9.065 7 10 C6.34 10 5.68 10 5 10 C3.7109375 8.57421875 3.7109375 8.57421875 2.375 6.6875 C1.92898437 6.07261719 1.48296875 5.45773438 1.0234375 4.82421875 C0 3 0 3 0 0 Z " fill="#F7F7F9" transform="translate(103,48)"/>
<path d="M0 0 C0.33 0.66 0.66 1.32 1 2 C-0.22976562 2.19916016 -0.22976562 2.19916016 -1.484375 2.40234375 C-3.10085937 2.66724609 -3.10085937 2.66724609 -4.75 2.9375 C-6.35101563 3.19853516 -6.35101563 3.19853516 -7.984375 3.46484375 C-10.89188836 3.91439792 -10.89188836 3.91439792 -13.203125 4.69140625 C-15 5 -15 5 -18 3 C-18 2.34 -18 1.68 -18 1 C-17.154375 1.04125 -16.30875 1.0825 -15.4375 1.125 C-11.93019646 1.14133491 -11.93019646 1.14133491 -8.4375 -0.0625 C-5.01734102 -0.99527063 -3.30624125 -1.16690867 0 0 Z " fill="#3C3C42" transform="translate(127,121)"/>
<path d="M0 0 C1.22975728 2.45951456 1.01468511 3.78256624 0.75 6.5 C0.68296875 7.2940625 0.6159375 8.088125 0.546875 8.90625 C0 11 0 11 -3 13 C-3 11.02 -3 9.04 -3 7 C-3.66 7 -4.32 7 -5 7 C-5.1875 4.625 -5.1875 4.625 -5 2 C-2 0 -2 0 0 0 Z " fill="#38383A" transform="translate(108,66)"/>
<path d="M0 0 C0.99 0 1.98 0 3 0 C3 0.99 3 1.98 3 3 C4.175625 3.4640625 4.175625 3.4640625 5.375 3.9375 C8 5 8 5 10 6 C9.67 8.64 9.34 11.28 9 14 C8.67 14 8.34 14 8 14 C8 12.02 8 10.04 8 8 C7.34 8 6.68 8 6 8 C5.67 9.98 5.34 11.96 5 14 C4.67 14 4.34 14 4 14 C3.855625 12.906875 3.71125 11.81375 3.5625 10.6875 C3.11711896 7.06877013 3.11711896 7.06877013 2 4 C1.34 4 0.68 4 0 4 C0 2.68 0 1.36 0 0 Z " fill="#343338" transform="translate(93,58)"/>
<path d="M0 0 C1.32 0.33 2.64 0.66 4 1 C4.05447047 2.41623216 4.09300508 3.83308191 4.125 5.25 C4.14820313 6.03890625 4.17140625 6.8278125 4.1953125 7.640625 C3.9828378 10.20731941 3.28654105 11.7916067 2 14 C0 12 0 12 -0.1953125 9.1796875 C-0.17210937 8.08914062 -0.14890625 6.99859375 -0.125 5.875 C-0.10695313 4.77929688 -0.08890625 3.68359375 -0.0703125 2.5546875 C-0.04710937 1.71164063 -0.02390625 0.86859375 0 0 Z " fill="#181818" transform="translate(16,54)"/>
<path d="M0 0 C1.2065625 0.0309375 1.2065625 0.0309375 2.4375 0.0625 C2.1075 1.0525 1.7775 2.0425 1.4375 3.0625 C0.7775 3.0625 0.1175 3.0625 -0.5625 3.0625 C-0.2325 4.7125 0.0975 6.3625 0.4375 8.0625 C-0.2225 8.0625 -0.8825 8.0625 -1.5625 8.0625 C-0.9025 9.7125 -0.2425 11.3625 0.4375 13.0625 C-0.5525 13.0625 -1.5425 13.0625 -2.5625 13.0625 C-4.5625 11.0625 -4.5625 11.0625 -4.57421875 8.71484375 C-4.46722656 7.81894531 -4.36023438 6.92304687 -4.25 6 C-4.15074219 5.10152344 -4.05148438 4.20304687 -3.94921875 3.27734375 C-3.39752769 0.1176586 -3.25859108 0.07947783 0 0 Z " fill="#2E2E2F" transform="translate(29.5625,27.9375)"/>
<path d="M0 0 C-1.32 0.33 -2.64 0.66 -4 1 C-4 1.99 -4 2.98 -4 4 C-4.598125 3.79375 -5.19625 3.5875 -5.8125 3.375 C-8.28450846 2.69328085 -8.28450846 2.69328085 -11 5 C-13.04296875 5.4140625 -13.04296875 5.4140625 -15.1875 5.625 C-16.445625 5.74875 -17.70375 5.8725 -19 6 C-13.62392927 -0.20315853 -7.70409393 -0.30816376 0 0 Z " fill="#6D6D6D" transform="translate(56,0)"/>
<path d="M0 0 C0.99 0.33 1.98 0.66 3 1 C2.39009109 4.55780196 1.4216319 7.6828589 0 11 C-1.65 10.01 -3.3 9.02 -5 8 C-3.62845496 5.04590299 -2.01136276 2.55991624 0 0 Z " fill="#2D2D2F" transform="translate(23,40)"/>
<path d="M0 0 C2.92879371 0.62759865 5.36095629 1.58622659 8 3 C7.01 3.33 6.02 3.66 5 4 C4.34 3.67 3.68 3.34 3 3 C2.67 3.66 2.34 4.32 2 5 C1.67 4.67 1.34 4.34 1 4 C-1.00720923 4.28674418 -3.0085944 4.61866701 -5 5 C-5 5.66 -5 6.32 -5 7 C-5.66 7 -6.32 7 -7 7 C-7 7.66 -7 8.32 -7 9 C-7.99 8.67 -8.98 8.34 -10 8 C-9.78515625 6.109375 -9.78515625 6.109375 -9 4 C-6.93359375 2.953125 -6.93359375 2.953125 -4.4375 2.25 C-3.61121094 2.00765625 -2.78492188 1.7653125 -1.93359375 1.515625 C-1.29550781 1.34546875 -0.65742187 1.1753125 0 1 C0 0.67 0 0.34 0 0 Z " fill="#424242" transform="translate(46,2)"/>
<path d="M0 0 C2.1462026 0.14029419 4.29196218 0.28738164 6.4375 0.4375 C7.63246094 0.51871094 8.82742187 0.59992187 10.05859375 0.68359375 C13 1 13 1 14 2 C14.66 2 15.32 2 16 2 C16 2.99 16 3.98 16 5 C13.03 5 10.06 5 7 5 C6.67 4.34 6.34 3.68 6 3 C4.02111039 2.27306096 2.02045442 1.60183749 0 1 C0 0.67 0 0.34 0 0 Z " fill="#515259" transform="translate(31,49)"/>
<path d="M0 0 C0.33 0.99 0.66 1.98 1 3 C0.01 3.33 -0.98 3.66 -2 4 C-1.34 4.33 -0.68 4.66 0 5 C1.53712084 7.34613181 2.09239476 8.44563145 1.625 11.25 C1.41875 11.8275 1.2125 12.405 1 13 C0.34 12.34 -0.32 11.68 -1 11 C-1.33 12.65 -1.66 14.3 -2 16 C-2.66 16 -3.32 16 -4 16 C-4.19286332 10.50339543 -3.90303246 6.18047725 -2 1 C-1.34 0.67 -0.68 0.34 0 0 Z " fill="#2F2F31" transform="translate(73,96)"/>
<path d="M0 0 C1.32 0 2.64 0 4 0 C3.67 2.31 3.34 4.62 3 7 C3.99 7.33 4.98 7.66 6 8 C5.67 10.31 5.34 12.62 5 15 C1.45704861 12.63803241 1.22957519 11.07984942 0.33984375 7.04296875 C-0.05564067 4.66551642 -0.15030725 2.40491605 0 0 Z " fill="#313030" transform="translate(37,72)"/>
<path d="M0 0 C3.375 -0.125 3.375 -0.125 7 0 C9 2 9 2 9 6 C6.36 5.67 3.72 5.34 1 5 C1 4.34 1 3.68 1 3 C0.34 2.67 -0.32 2.34 -1 2 C-0.67 1.34 -0.34 0.68 0 0 Z " fill="#131718" transform="translate(29,31)"/>
<path d="M0 0 C0.66 0.33 1.32 0.66 2 1 C2 4.96 2 8.92 2 13 C0.68 13 -0.64 13 -2 13 C-2.33 12.01 -2.66 11.02 -3 10 C-2.67 9.67 -2.34 9.34 -2 9 C-1.79395915 7.67218122 -1.6337041 6.33704105 -1.5 5 C-1.11111111 1.11111111 -1.11111111 1.11111111 0 0 Z " fill="#4F4F50" transform="translate(146,135)"/>
<path d="M0 0 C0.99 0 1.98 0 3 0 C3 0.99 3 1.98 3 3 C4.98 2.34 6.96 1.68 9 1 C9.66 2.65 10.32 4.3 11 6 C10.01 6 9.02 6 8 6 C8 6.99 8 7.98 8 9 C7.34 9 6.68 9 6 9 C6 7.35 6 5.7 6 4 C4.35 4 2.7 4 1 4 C1 4.66 1 5.32 1 6 C0.01 5.67 -0.98 5.34 -2 5 C-1.34 5 -0.68 5 0 5 C-0.2784375 4.0409375 -0.2784375 4.0409375 -0.5625 3.0625 C-0.7790625 2.0415625 -0.7790625 2.0415625 -1 1 C-0.67 0.67 -0.34 0.34 0 0 Z " fill="#54545B" transform="translate(120,130)"/>
<path d="M0 0 C0.66 0 1.32 0 2 0 C2.33 1.32 2.66 2.64 3 4 C2.01 4.66 1.02 5.32 0 6 C0 4.02 0 2.04 0 0 Z M-1 6 C-0.34 6.33 0.32 6.66 1 7 C0.3125 8.9375 0.3125 8.9375 -1 11 C-3.625 11.75 -3.625 11.75 -6 12 C-6.33 12.99 -6.66 13.98 -7 15 C-7.33 13.68 -7.66 12.36 -8 11 C-7.34 10.67 -6.68 10.34 -6 10 C-5.67 9.01 -5.34 8.02 -5 7 C-4.34 7 -3.68 7 -3 7 C-2.67 7.66 -2.34 8.32 -2 9 C-1.67 8.01 -1.34 7.02 -1 6 Z " fill="#1B1B1B" transform="translate(90,96)"/>
<path d="M0 0 C2.51012963 2.51012963 2.29721609 3.46805237 2.3125 6.9375 C2.32925781 7.81277344 2.34601563 8.68804687 2.36328125 9.58984375 C2 12 2 12 0.60546875 13.81640625 C-1 15 -1 15 -3 15 C-3 14.01 -3 13.02 -3 12 C-2.34 11.67 -1.68 11.34 -1 11 C-1 9.02 -1 7.04 -1 5 C-2.32 6.32 -3.64 7.64 -5 9 C-4.38722388 6.03824877 -3.74627478 4.61941217 -2 2 C-1.34 2.33 -0.68 2.66 0 3 C0 2.01 0 1.02 0 0 Z " fill="#38383A" transform="translate(67,39)"/>
<path d="M0 0 C1.43739513 -0.02712066 2.87493863 -0.04645067 4.3125 -0.0625 C5.51326172 -0.07990234 5.51326172 -0.07990234 6.73828125 -0.09765625 C9 0 9 0 12 1 C12 1.99 12 2.98 12 4 C10.68 4 9.36 4 8 4 C8 3.34 8 2.68 8 2 C7.34 2 6.68 2 6 2 C6 2.66 6 3.32 6 4 C4.02 4 2.04 4 0 4 C0 2.68 0 1.36 0 0 Z " fill="#131216" transform="translate(42,33)"/>
<path d="M0 0 C0 1.65 0 3.3 0 5 C-0.99 5 -1.98 5 -3 5 C-3 4.34 -3 3.68 -3 3 C-3.66 2.67 -4.32 2.34 -5 2 C-1.125 0 -1.125 0 0 0 Z M-3 6 C-3.33 7.32 -3.66 8.64 -4 10 C-5.65 10.33 -7.3 10.66 -9 11 C-9.33 9.35 -9.66 7.7 -10 6 C-5.25 4.875 -5.25 4.875 -3 6 Z " fill="#454545" transform="translate(49,8)"/>
<path d="M0 0 C1.98 0.66 3.96 1.32 6 2 C5.01 2.495 5.01 2.495 4 3 C4 3.66 4 4.32 4 5 C5.32 5 6.64 5 8 5 C8 5.66 8 6.32 8 7 C5.36 6.67 2.72 6.34 0 6 C-0.38218767 4.34385343 -0.71395102 2.67542976 -1 1 C-0.67 0.67 -0.34 0.34 0 0 Z M5 0 C6.98 0.99 6.98 0.99 9 2 C7.68 1.67 6.36 1.34 5 1 C5 0.67 5 0.34 5 0 Z " fill="#53545E" transform="translate(128,117)"/>
<path d="M0 0 C4.47034438 3.95944788 7.7085099 8.44586447 10 14 C9.67 14.66 9.34 15.32 9 16 C8.60167969 15.44570312 8.20335938 14.89140625 7.79296875 14.3203125 C7.26316406 13.59585938 6.73335938 12.87140625 6.1875 12.125 C5.66542969 11.40570313 5.14335938 10.68640625 4.60546875 9.9453125 C2.96727223 7.76971345 2.96727223 7.76971345 0 6 C0.33 5.34 0.66 4.68 1 4 C0.34 3.34 -0.32 2.68 -1 2 C-0.67 1.34 -0.34 0.68 0 0 Z " fill="#5C5B61" transform="translate(102,50)"/>
<path d="M0 0 C0.99 0 1.98 0 3 0 C3 0.66 3 1.32 3 2 C3.99 2 4.98 2 6 2 C6.66 3.65 7.32 5.3 8 7 C5.69 7 3.38 7 1 7 C0.67 4.69 0.34 2.38 0 0 Z " fill="#303032" transform="translate(136,141)"/>
<path d="M0 0 C0.66 0 1.32 0 2 0 C2.33 5.28 2.66 10.56 3 16 C2.34 16.33 1.68 16.66 1 17 C-1.37706418 13.33460332 -1.05094317 10.50943165 -0.625 6.25 C-0.51414063 5.07953125 -0.40328125 3.9090625 -0.2890625 2.703125 C-0.19367187 1.81109375 -0.09828125 0.9190625 0 0 Z " fill="#1E1E1E" transform="translate(46,78)"/>
<path d="M0 0 C-0.33 1.98 -0.66 3.96 -1 6 C-4.3 6 -7.6 6 -11 6 C-7.57865372 2.33427184 -5.14341528 0 0 0 Z " fill="#2F3032" transform="translate(48,19)"/>
<path d="M0 0 C-0.99 0.33 -1.98 0.66 -3 1 C-3.33 3.64 -3.66 6.28 -4 9 C-4.99 9 -5.98 9 -7 9 C-7 7.02 -7 5.04 -7 3 C-8.32 2.67 -9.64 2.34 -11 2 C-7.36576791 -0.32590854 -4.22911669 -0.16265833 0 0 Z " fill="#6C6B75" transform="translate(131,123)"/>
<path d="M0 0 C1.75211782 0.25677589 3.50167936 0.53102953 5.25 0.8125 C6.22453125 0.96332031 7.1990625 1.11414062 8.203125 1.26953125 C11 2 11 2 15 5 C8.07 4.505 8.07 4.505 1 4 C0.67 2.68 0.34 1.36 0 0 Z " fill="#353437" transform="translate(27,54)"/>
<path d="M0 0 C4.95 0 9.9 0 15 0 C15.33 0.99 15.66 1.98 16 3 C10.26157749 3.20413361 5.39460953 3.27141454 0 1 C0 0.67 0 0.34 0 0 Z " fill="#676B6E" transform="translate(35,26)"/>
<path d="M0 0 C0.66 0.99 1.32 1.98 2 3 C0.1875 6 0.1875 6 -2 9 C-2.99 9 -3.98 9 -5 9 C-5.3125 6.1875 -5.3125 6.1875 -5 3 C-2.5 1.125 -2.5 1.125 0 0 Z " fill="#323234" transform="translate(53,83)"/>
<path d="M0 0 C0.66 0.33 1.32 0.66 2 1 C3.65782473 6.35604911 2.39433385 9.21133231 0 14 C-0.33 14 -0.66 14 -1 14 C-1.02685938 11.85423363 -1.04633088 9.70837355 -1.0625 7.5625 C-1.07410156 6.36753906 -1.08570312 5.17257813 -1.09765625 3.94140625 C-1 1 -1 1 0 0 Z " fill="#48484A" transform="translate(112,73)"/>
<path d="M0 0 C3.3 0.66 6.6 1.32 10 2 C5.89441282 4.05279359 4.19793315 4.2216942 -0.25 4.125 C-1.32765625 4.10695313 -2.4053125 4.08890625 -3.515625 4.0703125 C-4.74539062 4.03550781 -4.74539062 4.03550781 -6 4 C-6 3.34 -6 2.68 -6 2 C-6.66 1.67 -7.32 1.34 -8 1 C-5.36 1.33 -2.72 1.66 0 2 C0 1.34 0 0.68 0 0 Z " fill="#26292D" transform="translate(38,35)"/>
<path d="M0 0 C0.33 0.66 0.66 1.32 1 2 C3.02463255 2.65213292 3.02463255 2.65213292 5 3 C3.25 8.75 3.25 8.75 1 11 C0.855625 10.360625 0.71125 9.72125 0.5625 9.0625 C0.18992819 7.02454854 0.18992819 7.02454854 -1 6 C-0.71325582 3.99279077 -0.38133299 1.9914056 0 0 Z " fill="#323234" transform="translate(79,62)"/>
<path d="M0 0 C2.475 0.99 2.475 0.99 5 2 C3.63055898 4.94956528 2.12169591 7.52468811 0 10 C-0.66 10 -1.32 10 -2 10 C-1.34 6.7 -0.68 3.4 0 0 Z " fill="#3D3D3D" transform="translate(32,12)"/>
<path d="M0 0 C1.98 0.99 1.98 0.99 4 2 C4.66 1.34 5.32 0.68 6 0 C6.66 0.33 7.32 0.66 8 1 C8 2.32 8 3.64 8 5 C6.02 5.99 6.02 5.99 4 7 C1 5 1 5 0.3125 2.375 C0.209375 1.59125 0.10625 0.8075 0 0 Z " fill="#55595E" transform="translate(130,129)"/>
<path d="M0 0 C2.24197388 1.77489599 2.94326323 2.62175489 3.375 5.5 C2.94326323 8.37824511 2.24197388 9.22510401 0 11 C0.99 11.33 1.98 11.66 3 12 C3 12.66 3 13.32 3 14 C1.68 14 0.36 14 -1 14 C-1.08333357 9.1666528 -0.95261487 4.76307437 0 0 Z " fill="#3B3B3B" transform="translate(18,72)"/>
<path d="M0 0 C0.495 0.165 0.99 0.33 1.5 0.5 C5.03444089 1.20688818 8.39690701 1.06005155 12 1 C11.01 2.485 11.01 2.485 10 4 C6.28359861 4.27028374 3.542799 4.180933 0 3 C0 2.01 0 1.02 0 0 Z " fill="#72767F" transform="translate(28,45)"/>
<path d="M0 0 C0.33 1.32 0.66 2.64 1 4 C1.66 4 2.32 4 3 4 C3 4.66 3 5.32 3 6 C3.66 6 4.32 6 5 6 C5 6.66 5 7.32 5 8 C5.66 8.33 6.32 8.66 7 9 C5.02 9.99 5.02 9.99 3 11 C2.01 10.34 1.02 9.68 0 9 C-0.29296875 6.8359375 -0.29296875 6.8359375 -0.1875 4.375 C-0.16042969 3.55773437 -0.13335938 2.74046875 -0.10546875 1.8984375 C-0.05326172 0.95871094 -0.05326172 0.95871094 0 0 Z " fill="#2C2C2E" transform="translate(17,94)"/>
<path d="M0 0 C1.10844919 3.32534757 0.84454356 5.62182575 0 9 C-2 7.75 -2 7.75 -4 6 C-4 4.68 -4 3.36 -4 2 C-2.68 1.34 -1.36 0.68 0 0 Z M1 6 C1.66 6 2.32 6 3 6 C2.67 6.66 2.34 7.32 2 8 C1.67 7.34 1.34 6.68 1 6 Z " fill="#363638" transform="translate(65,78)"/>
<path d="M0 0 C5.75 -0.125 5.75 -0.125 8 1 C7.34 2.65 6.68 4.3 6 6 C5.01 5.67 4.02 5.34 3 5 C3 4.34 3 3.68 3 3 C2.01 3 1.02 3 0 3 C0 2.01 0 1.02 0 0 Z " fill="#555555" transform="translate(52,1)"/>
<path d="M0 0 C3.3 1.65 6.6 3.3 10 5 C7 7 7 7 4.3125 6.625 C3.549375 6.41875 2.78625 6.2125 2 6 C1.34 4.02 0.68 2.04 0 0 Z " fill="#6C6B73" transform="translate(127,112)"/>
<path d="M0 0 C2 0 2 0 3.6875 1.5625 C5.52326619 4.97178007 4.78222319 7.30221767 4 11 C3.34 10.67 2.68 10.34 2 10 C1.3671875 7.71484375 1.3671875 7.71484375 0.875 4.9375 C0.70742187 4.01839844 0.53984375 3.09929687 0.3671875 2.15234375 C0.24601562 1.44207031 0.12484375 0.73179688 0 0 Z " fill="#4B4B4D" transform="translate(107,62)"/>
<path d="M0 0 C0.99 0.33 1.98 0.66 3 1 C3 2.65 3 4.3 3 6 C1.35 6.33 -0.3 6.66 -2 7 C-2.33 5.35 -2.66 3.7 -3 2 C-2.01 1.34 -1.02 0.68 0 0 Z " fill="#4F4E56" transform="translate(99,49)"/>
<path d="M0 0 C2.125 0.375 2.125 0.375 4 1 C4 3.31 4 5.62 4 8 C1.37812506 6.95125002 0.20628639 6.35068687 -1.25 3.875 C-1.4975 3.25625 -1.745 2.6375 -2 2 C-1.34 1.34 -0.68 0.68 0 0 Z " fill="#313133" transform="translate(52,124)"/>
<path d="M0 0 C3.28788824 3.11016455 5.83735988 6.01618925 8 10 C7.01 10.495 7.01 10.495 6 11 C5.67 10.34 5.34 9.68 5 9 C2.98330173 7.86649466 2.98330173 7.86649466 1 7 C1 6.34 1 5.68 1 5 C0.34 4.34 -0.32 3.68 -1 3 C-0.67 2.01 -0.34 1.02 0 0 Z " fill="#494949" transform="translate(73,16)"/>
<path d="M0 0 C3.53790403 3.69172595 3.59115883 7.09390595 4 12 C3.34 12 2.68 12 2 12 C-0.29632557 7.56043724 -1.20238143 4.94312365 0 0 Z " fill="#767677" transform="translate(112,66)"/>
<path d="M0 0 C1.32 0.33 2.64 0.66 4 1 C4 1.66 4 2.32 4 3 C6.64 2.67 9.28 2.34 12 2 C11.67 2.99 11.34 3.98 11 5 C8.03 5 5.06 5 2 5 C1.34 3.35 0.68 1.7 0 0 Z " fill="#383B3F" transform="translate(28,36)"/>
<path d="M0 0 C1.32 0.66 2.64 1.32 4 2 C3.67 3.32 3.34 4.64 3 6 C1.35 5.67 -0.3 5.34 -2 5 C-2.33 5.66 -2.66 6.32 -3 7 C-3 6.01 -3 5.02 -3 4 C-2.34 3.67 -1.68 3.34 -1 3 C-0.67 2.01 -0.34 1.02 0 0 Z " fill="#3F3F40" transform="translate(81,28)"/>
<path d="M0 0 C0.33 0.99 0.66 1.98 1 3 C1.226875 3.66 1.45375 4.32 1.6875 5 C2 7 2 7 0 10 C-1.5625 8.3125 -1.5625 8.3125 -3 6 C-2.8125 3.3125 -2.8125 3.3125 -2 1 C-1.34 0.67 -0.68 0.34 0 0 Z " fill="#1B1B1B" transform="translate(22,71)"/>
<path d="M0 0 C1.32 0 2.64 0 4 0 C3.75 2.375 3.75 2.375 3 5 C0.9375 6.3125 0.9375 6.3125 -1 7 C-0.67 4.69 -0.34 2.38 0 0 Z " fill="#39393B" transform="translate(43,126)"/>
<path d="M0 0 C2.475 0.99 2.475 0.99 5 2 C5 2.99 5 3.98 5 5 C4.34 5 3.68 5 3 5 C3 5.99 3 6.98 3 8 C2.34 8 1.68 8 1 8 C0.67 5.36 0.34 2.72 0 0 Z " fill="#2F2F31" transform="translate(27,107)"/>
<path d="M0 0 C5.57142857 5.14285714 5.57142857 5.14285714 6 9 C3 8 3 8 0 6 C-0.1875 2.875 -0.1875 2.875 0 0 Z " fill="#7C7F84" transform="translate(139,119)"/>
<path d="M0 0 C0.66 0 1.32 0 2 0 C1.67 1.32 1.34 2.64 1 4 C1.66 4 2.32 4 3 4 C3 4.99 3 5.98 3 7 C1.68 7 0.36 7 -1 7 C-1.33 5.35 -1.66 3.7 -2 2 C-1.34 2 -0.68 2 0 2 C0 1.34 0 0.68 0 0 Z " fill="#3B3B3B" transform="translate(81,99)"/>
<path d="M0 0 C1.98 0 3.96 0 6 0 C5.34 2.31 4.68 4.62 4 7 C2 5.1875 2 5.1875 0 3 C0 2.01 0 1.02 0 0 Z " fill="#EFEFF2" transform="translate(103,48)"/>
<path d="M0 0 C1.32 0.99 2.64 1.98 4 3 C3.54625 3.433125 3.0925 3.86625 2.625 4.3125 C0.79975666 6.10798342 0.79975666 6.10798342 -1 9 C-1.80967438 6.08517222 -2.21845993 4.53886783 -1.0625 1.6875 C-0.711875 1.130625 -0.36125 0.57375 0 0 Z " fill="#E6E6E4" transform="translate(18,40)"/>
<path d="M0 0 C0.33 0.66 0.66 1.32 1 2 C-2.3 2 -5.6 2 -9 2 C-7.0184954 -1.96300919 -3.67160038 -1.06283169 0 0 Z " fill="#2F2F37" transform="translate(127,121)"/>
<path d="M0 0 C1.53445094 3.06890187 0.54984289 5.70094266 0 9 C-1.32 8.34 -2.64 7.68 -4 7 C-4 6.34 -4 5.68 -4 5 C-3.34 5 -2.68 5 -2 5 C-2 3.68 -2 2.36 -2 1 C-1.34 0.67 -0.68 0.34 0 0 Z " fill="#19191B" transform="translate(60,111)"/>
<path d="M0 0 C2.475 0.99 2.475 0.99 5 2 C4.67 3.65 4.34 5.3 4 7 C2.68 6.34 1.36 5.68 0 5 C0 3.35 0 1.7 0 0 Z " fill="#6A6A71" transform="translate(120,109)"/>
<path d="M0 0 C0.66 0 1.32 0 2 0 C2.625 2.8125 2.625 2.8125 3 6 C2.34 6.99 1.68 7.98 1 9 C0 8 0 8 -0.09765625 6.15234375 C-0.06510417 4.1015625 -0.03255208 2.05078125 0 0 Z " fill="#424244" transform="translate(51,100)"/>
<path d="M0 0 C1.98 0.99 3.96 1.98 6 3 C5.67 5.64 5.34 8.28 5 11 C4.67 11 4.34 11 4 11 C4 9.02 4 7.04 4 5 C3.34 5 2.68 5 2 5 C2 4.34 2 3.68 2 3 C1.34 3 0.68 3 0 3 C0 2.01 0 1.02 0 0 Z " fill="#3B3A3E" transform="translate(97,61)"/>
<path d="M0 0 C1.65 0.33 3.3 0.66 5 1 C4.34 2.32 3.68 3.64 3 5 C2.34 5 1.68 5 1 5 C1 4.34 1 3.68 1 3 C-0.32 3.33 -1.64 3.66 -3 4 C-2.67 3.34 -2.34 2.68 -2 2 C-1.34 2 -0.68 2 0 2 C0 1.34 0 0.68 0 0 Z " fill="#323232" transform="translate(49,5)"/>
<path d="M0 0 C0.33 0.66 0.66 1.32 1 2 C-0.375 4 -0.375 4 -2 6 C-2.66 6 -3.32 6 -4 6 C-4.33 6.66 -4.66 7.32 -5 8 C-4.125 3.25 -4.125 3.25 -3 1 C-2.01 0.67 -1.02 0.34 0 0 Z " fill="#3B3B3D" transform="translate(109,128)"/>
<path d="M0 0 C1.32 0 2.64 0 4 0 C4 0.66 4 1.32 4 2 C4.66 2 5.32 2 6 2 C6 1.34 6 0.68 6 0 C6.66 0 7.32 0 8 0 C8 0.99 8 1.98 8 3 C5.36 3 2.72 3 0 3 C0 2.01 0 1.02 0 0 Z " fill="#5B5C62" transform="translate(39,51)"/>
<path d="M0 0 C2.97 0 5.94 0 9 0 C8.67 1.32 8.34 2.64 8 4 C2.25 2.25 2.25 2.25 0 0 Z " fill="#F1F1F1" transform="translate(56,0)"/>
<path d="M0 0 C0.33 0.99 0.66 1.98 1 3 C3.01508358 3.73323796 3.01508358 3.73323796 5 4 C5 5.32 5 6.64 5 8 C4.01 8 3.02 8 2 8 C2 6.68 2 5.36 2 4 C1.34 4 0.68 4 0 4 C0 2.68 0 1.36 0 0 Z " fill="#3A393C" transform="translate(110,140)"/>
<path d="M0 0 C0.33 0.66 0.66 1.32 1 2 C1.66 2.33 2.32 2.66 3 3 C2.67 3.99 2.34 4.98 2 6 C-0.64 5.67 -3.28 5.34 -6 5 C-6 4.67 -6 4.34 -6 4 C-4.35 4 -2.7 4 -1 4 C-0.67 2.68 -0.34 1.36 0 0 Z " fill="#5C5F67" transform="translate(137,120)"/>
<path d="M0 0 C0.99 0 1.98 0 3 0 C3 1.32 3 2.64 3 4 C3.66 4 4.32 4 5 4 C4.67 4.99 4.34 5.98 4 7 C2 5.75 2 5.75 0 4 C0 2.68 0 1.36 0 0 Z " fill="#2C2C2D" transform="translate(11,118)"/>
<path d="M0 0 C0.99 0.33 1.98 0.66 3 1 C2.01 2.485 2.01 2.485 1 4 C0.34 4 -0.32 4 -1 4 C-1 4.66 -1 5.32 -1 6 C-1.66 6 -2.32 6 -3 6 C-3 5.34 -3 4.68 -3 4 C-3.66 3.67 -4.32 3.34 -5 3 C-4.34 3 -3.68 3 -3 3 C-2.67 2.34 -2.34 1.68 -2 1 C-2 1.66 -2 2.32 -2 3 C-1.34 3 -0.68 3 0 3 C0 2.01 0 1.02 0 0 Z " fill="#2B2B2D" transform="translate(69,51)"/>
<path d="M0 0 C-1 3 -1 3 -4 5 C-6.6875 5.125 -6.6875 5.125 -9 5 C-4.32258065 0 -4.32258065 0 0 0 Z " fill="#27282A" transform="translate(46,20)"/>
<path d="M0 0 C2.64465038 3.1254959 3.84414715 6.08788267 5 10 C2.3651481 7.54080489 0.25483449 5.42227589 -1 2 C-0.67 1.34 -0.34 0.68 0 0 Z " fill="#656467" transform="translate(107,56)"/>
<path d="M0 0 C0.66 0.33 1.32 0.66 2 1 C2 2.32 2 3.64 2 5 C0.68 5.33 -0.64 5.66 -2 6 C-1.125 1.125 -1.125 1.125 0 0 Z " fill="#303032" transform="translate(80,37)"/>
<path d="M0 0 C-0.6875 1.9375 -0.6875 1.9375 -2 4 C-4.625 4.75 -4.625 4.75 -7 5 C-7 4.34 -7 3.68 -7 3 C-6.34 3 -5.68 3 -5 3 C-5 2.34 -5 1.68 -5 1 C-2 0 -2 0 0 0 Z " fill="#2E2E2F" transform="translate(66,13)"/>
<path d="M0 0 C0.66 0.33 1.32 0.66 2 1 C1.67 3.31 1.34 5.62 1 8 C0.34 8 -0.32 8 -1 8 C-1.625 5.125 -1.625 5.125 -2 2 C-1.34 1.34 -0.68 0.68 0 0 Z " fill="#2B2B2D" transform="translate(106,105)"/>
<path d="M0 0 C0.99 0 1.98 0 3 0 C2.34 1.32 1.68 2.64 1 4 C-0.98 4 -2.96 4 -5 4 C-5.33 3.01 -5.66 2.02 -6 1 C-5.34 1 -4.68 1 -4 1 C-4 1.66 -4 2.32 -4 3 C-2.68 3 -1.36 3 0 3 C0 2.01 0 1.02 0 0 Z " fill="#252527" transform="translate(54,34)"/>
</svg>
